<svg xmlns="http://www.w3.org/2000/svg" xmlns:xlink="http://www.w3.org/1999/xlink" width="66" height="75" viewBox="0 0 66 75">
    <defs>
        <path id="a" d="M37.205 66.03h37.204V1H0v65.03z"/>
    </defs>
    <g fill="none" fill-rule="evenodd" transform="rotate(-90 37 38)">
        <mask id="b" fill="#fff">
            <use xlink:href="#a"/>
        </mask>
        <path fill="#5F3EFF" d="M20.032 66.03h34.345l.025-.002a2.854 2.854 0 0 0 2.452-1.428l17.172-29.653a2.857 2.857 0 0 0 .01-2.843c-.005-.005-.006-.012-.01-.02L56.856 2.432a2.858 2.858 0 0 0-2.45-1.428c-.01-.002-.019-.004-.029-.004H20.032a2.858 2.858 0 0 0-2.457 1.4c-.007.012-.014.02-.02.032l-.03.051-.012.02L.383 32.084c-.005.008-.008.017-.012.025-.48.853-.513 1.93.011 2.838L17.554 64.6c.008.015.02.029.028.043a2.859 2.859 0 0 0 2.45 1.388zm5.723-19.767a2.862 2.862 0 1 1 0-5.724H45.79V26.493H25.755a2.862 2.862 0 1 1 0-5.724h22.896a2.863 2.863 0 0 1 2.862 2.861v19.77a2.863 2.863 0 0 1-2.862 2.861H25.755z" mask="url(#b)"/>
    </g>
</svg>
